<svg id="Group_44" data-name="Group 44" xmlns="http://www.w3.org/2000/svg" width="40" height="40" viewBox="0 0 40 40">
  <circle id="Ellipse_2" data-name="Ellipse 2" cx="20" cy="20" r="20" fill="#026bb2"/>
  <path id="Icon_awesome-info-circle" data-name="Icon awesome-info-circle" d="M10.563.563a10,10,0,1,0,10,10A10,10,0,0,0,10.563.563Zm0,4.435A1.694,1.694,0,1,1,8.869,6.692,1.694,1.694,0,0,1,10.563,5ZM12.821,15.24a.484.484,0,0,1-.484.484H8.788A.484.484,0,0,1,8.3,15.24v-.968a.484.484,0,0,1,.484-.484h.484V11.208H8.788a.484.484,0,0,1-.484-.484V9.756a.484.484,0,0,1,.484-.484h2.581a.484.484,0,0,1,.484.484v4.032h.484a.484.484,0,0,1,.484.484Z" transform="translate(9.438 9.438)" fill="#fcfcfc"/>
</svg>
