<svg id="Group_44" data-name="Group 44" xmlns="http://www.w3.org/2000/svg" width="40" height="40" viewBox="0 0 40 40">
  <circle id="Ellipse_2" data-name="Ellipse 2" cx="20" cy="20" r="20" fill="#026bb2"/>
  <path id="Icon_awesome-boxes" data-name="Icon awesome-boxes" d="M23.819,12.25h-3.4v4.083l-1.361-.906-1.361.906V12.25h-3.4a.683.683,0,0,0-.681.681V21.1a.683.683,0,0,0,.681.681h9.528A.683.683,0,0,0,24.5,21.1V12.931A.683.683,0,0,0,23.819,12.25ZM7.486,9.528h9.528a.683.683,0,0,0,.681-.681V.681A.683.683,0,0,0,17.014,0h-3.4V4.083L12.25,3.177l-1.361.906V0h-3.4a.683.683,0,0,0-.681.681V8.847A.683.683,0,0,0,7.486,9.528Zm2.722,2.722h-3.4v4.083l-1.361-.906-1.361.906V12.25H.681A.683.683,0,0,0,0,12.931V21.1a.683.683,0,0,0,.681.681h9.528a.683.683,0,0,0,.681-.681V12.931A.683.683,0,0,0,10.208,12.25Z" transform="translate(7.508 9.111)" fill="#fff"/>
</svg>
