<svg id="Group_42" data-name="Group 42" xmlns="http://www.w3.org/2000/svg" width="40" height="40" viewBox="0 0 40 40">
  <circle id="Ellipse_2" data-name="Ellipse 2" cx="20" cy="20" r="20" fill="#026bb2"/>
  <path id="Icon_awesome-weight-hanging" data-name="Icon awesome-weight-hanging" d="M19.933,17.417,17.08,6.006a1.272,1.272,0,0,0-1.206-1H13.521A3.75,3.75,0,1,0,6.48,5H4.127a1.273,1.273,0,0,0-1.206,1L.067,17.417A2.015,2.015,0,0,0,1.876,20H18.124A2.015,2.015,0,0,0,19.933,17.417ZM10,5a1.25,1.25,0,1,1,1.25-1.25A1.252,1.252,0,0,1,10,5Z" transform="translate(10.306 9.999)" fill="#fff"/>
</svg>
